<?xml version="1.0" encoding="utf-8"?>
<!-- Generator: Adobe Illustrator 21.0.0, SVG Export Plug-In . SVG Version: 6.00 Build 0)  -->
<svg version="1.1" id="图层_1" xmlns="http://www.w3.org/2000/svg" xmlns:xlink="http://www.w3.org/1999/xlink" x="0px" y="0px"
	 viewBox="0 0 300 70" style="enable-background:new 0 0 300 70;" xml:space="preserve">
<style type="text/css">
	.st0{fill:#20BEFF;}
	.st1{fill:#03AEE2;}
</style>
<g>
	<polygon class="st0" points="30.2,52 60.3,34.6 60.3,52.3 30.3,69.7 	"/>
	<polygon class="st0" points="0,17.4 30.3,-0.2 30.3,17.2 0,34.6 	"/>
	<polygon class="st0" points="30.3,-0.2 60.4,17.3 30.2,34.9 	"/>
	<polygon class="st0" points="30.3,34.8 0,52.3 30.3,69.7 	"/>
	<polygon class="st1" points="30.3,-0.2 27.6,18.8 30.3,17.2 	"/>
	<polygon class="st1" points="30.3,69.6 33,50.4 30.3,51.9 	"/>
</g>
<g>
	<path class="st0" d="M93.9,44.8h-3.3V33c0-1.7-0.6-3.2-1.7-4.4c-1.1-1.2-2.5-1.8-4.3-1.8c-1.7,0-3.1,0.6-4.3,1.8
		c-1.1,1.2-1.7,2.6-1.7,4.4v11.8h-3.4V24h3.4v2.2c1.1-0.9,2.1-1.5,2.9-1.8c1-0.4,2.1-0.7,3.3-0.7c1.5,0,3,0.4,4.3,1.1
		c1.3,0.7,2.4,1.7,3.2,3c0.9-1.2,2.1-2.2,3.5-3c1.4-0.8,2.8-1.1,4.3-1.1c2.5,0,4.6,0.9,6.3,2.7c1.7,1.8,2.6,3.9,2.6,6.4v12h-3.3V33
		c0-1.7-0.6-3.2-1.7-4.4s-2.5-1.8-4.2-1.8c-1.7,0-3.2,0.6-4.3,1.8c-1.1,1.2-1.7,2.6-1.7,4.3V44.8z"/>
	<path class="st0" d="M110.8,24.1h4l4.5,6.9l4.5-6.9h4L121,34.4v10.4h-3.4V34.4L110.8,24.1z"/>
	<path class="st0" d="M149.6,44.8v-3.4c0-1.3,1.1-2.5,3.4-3.5l11.7-5.3c1.7-0.7,2.5-1.6,2.5-2.8c0-0.7-0.2-1.2-0.7-1.7
		c-0.5-0.5-1.1-0.7-1.8-0.7h-14.3V24h14.4c1.6,0,2.9,0.6,4.1,1.7c1.1,1.1,1.7,2.5,1.7,4c0,1-0.3,2-0.8,2.9c-0.4,0.8-1.2,1.4-2.2,2
		c-0.3,0.2-1.2,0.6-2.8,1.2c-7.8,3.4-11.6,5.2-11.6,5.5h17.2v3.4H149.6z"/>
	<path class="st0" d="M192.8,44.8v-3.4h14.2c0.8,0,1.5-0.3,2.1-0.8c0.6-0.6,0.9-1.3,0.9-2.1c0-0.8-0.3-1.5-0.9-2.1
		c-0.6-0.6-1.3-0.8-2.1-0.8h-8.6c-2.2,0-3.9-0.9-5-2.8c-0.5-0.9-0.8-1.9-0.8-2.9c0-1.6,0.6-2.9,1.7-4s2.5-1.7,4.1-1.7h14.4v3.3
		h-14.3c-0.7,0-1.3,0.2-1.8,0.7c-0.5,0.5-0.7,1-0.7,1.7c0,0.7,0.2,1.3,0.7,1.7c0.5,0.5,1.1,0.7,1.8,0.7h8.7c2.5,0,4.4,1,5.6,3.1
		c0.6,1,0.8,2,0.8,3.1c0,1.9-0.6,3.4-1.9,4.5c-1.3,1.2-2.8,1.8-4.7,1.8H192.8z"/>
	<path class="st0" d="M232.4,39.2c-0.9,1.8-2.2,3.1-3.9,4.1c-1.7,1-3.5,1.5-5.6,1.5h-5v6.9h-3.2V24h8.1c3,0,5.5,1,7.6,3
		s3.2,4.5,3.2,7.4C233.6,36.1,233.2,37.7,232.4,39.2z M217.9,41.8h4.6c2.1,0,3.9-0.7,5.4-2.1c1.5-1.4,2.2-3.1,2.2-5.2
		c0-2.1-0.7-3.8-2.2-5.1c-1.4-1.3-3.2-2-5.3-2h-4.7V41.8z"/>
	<path class="st0" d="M251.4,44.8V27h-4.6c-2.1,0-3.9,0.7-5.4,2.1c-1.5,1.4-2.2,3.2-2.2,5.3c0,2.1,0.7,3.9,2.2,5.3
		c1.5,1.4,3.2,2.1,5.3,2.1c1.3,0,2.4-0.3,3.5-0.9v3.3c-1.4,0.5-2.6,0.7-3.6,0.7c-3,0-5.5-1-7.6-3s-3.2-4.5-3.2-7.5
		c0-1.7,0.4-3.3,1.2-4.8c0.9-1.8,2.2-3.1,3.9-4.1c1.7-1,3.5-1.5,5.6-1.5h8.3v20.8H251.4z"/>
	<path class="st0" d="M273.4,29.9c-1.9-2-4-3-6.3-3c-2.1,0-3.8,0.8-5.3,2.3s-2.2,3.3-2.2,5.4c0,2.1,0.7,3.8,2.2,5.3
		c1.5,1.5,3.2,2.2,5.3,2.2c1.6,0,3-0.4,4.3-1.3c1.3-0.8,2.2-2,2.7-3.4l2.3,2.2c-2,3.8-4.9,5.7-8.8,5.7c-3.2,0-5.8-1-7.9-2.9
		c-2.2-2-3.3-4.6-3.3-7.7c0-3,1-5.6,3.1-7.6s4.7-3.1,7.8-3.1c3.8,0,6.7,1.4,8.8,4.3L273.4,29.9z"/>
	<path class="st0" d="M295.6,32.8c-0.6-4-3.1-6-7.5-6c-2.2,0-4.1,0.7-5.7,2.2s-2.4,3.3-2.3,5.4c0,2.1,0.8,3.8,2.2,5.3
		c1.5,1.5,3.2,2.2,5.3,2.2c1.8,0,3.4-0.3,5-1c1.9-0.8,3-1.9,3.5-3.2l2.2,2.2c-0.9,1.7-2.4,3-4.3,3.9c-1.8,0.9-3.8,1.3-6,1.3
		c-3.1,0-5.7-1-7.9-3.1s-3.3-4.6-3.3-7.6c0-3,1.1-5.5,3.3-7.6c2.2-2.1,4.9-3.1,7.9-3.1c3.3,0,5.9,0.8,7.8,2.3
		c2.2,1.7,3.3,4.5,3.3,8.1c0,0.4,0,0.9,0,1.4h-15.9v-2.7L295.6,32.8L295.6,32.8z"/>
</g>
</svg>
