<?xml version="1.0" encoding="utf-8"?>
<!-- Generator: Adobe Illustrator 21.0.0, SVG Export Plug-In . SVG Version: 6.00 Build 0)  -->
<svg version="1.1" id="图层_1" xmlns="http://www.w3.org/2000/svg" xmlns:xlink="http://www.w3.org/1999/xlink" x="0px" y="0px"
	 viewBox="0 0 300 70" style="enable-background:new 0 0 300 70;" xml:space="preserve">
<style type="text/css">
	.st0{fill:#20BEFF;}
	.st1{fill:#8245E0;}
	.st2{fill:#00C341;}
	.st3{fill:#FFCC01;}
	.st4{fill-rule:evenodd;clip-rule:evenodd;fill:#F90050;}
	.st5{fill:#FFFFFF;}
	.st6{fill:#DCDCDC;}
</style>
<g>
	<path class="st0" d="M27,48.9h-4.8V31.7c0-2.5-0.8-4.6-2.4-6.4c-1.6-1.7-3.7-2.6-6.2-2.6c-2.5,0-4.6,0.9-6.2,2.6
		c-1.6,1.7-2.4,3.9-2.4,6.4v17.2H0V18.6h4.9v3.1c1.6-1.3,3-2.1,4.2-2.6c1.5-0.6,3.1-1,4.8-1c2.3,0,4.3,0.5,6.2,1.6
		c1.9,1.1,3.4,2.5,4.6,4.3c1.3-1.8,3-3.2,5.1-4.3c2-1.1,4.1-1.6,6.3-1.6c3.6,0,6.7,1.3,9.2,3.9c2.5,2.6,3.8,5.7,3.8,9.4v17.5h-4.8
		V31.7c0-2.5-0.8-4.6-2.4-6.4c-1.6-1.7-3.7-2.6-6.1-2.6c-2.5,0-4.6,0.9-6.3,2.6C27.8,26.9,27,29,27,31.5V48.9z"/>
	<path class="st1" d="M51.7,18.7h5.8l6.5,10l6.5-10h5.9l-9.9,15.1v15.1h-4.9V33.8L51.7,18.7z"/>
	<path class="st0" d="M144.7,49v-5h20.6c1.2,0,2.2-0.4,3.1-1.2s1.3-1.8,1.3-3c0-1.2-0.4-2.2-1.3-3c-0.9-0.8-1.9-1.2-3.1-1.2h-12.5
		c-3.3,0-5.7-1.4-7.3-4.1c-0.8-1.3-1.2-2.7-1.2-4.3c0-2.3,0.8-4.3,2.4-5.9s3.6-2.5,5.9-2.5h21v4.9H153c-1,0-1.9,0.3-2.6,1
		c-0.7,0.7-1.1,1.5-1.1,2.5c0,1,0.4,1.8,1.1,2.5c0.7,0.7,1.6,1,2.6,1h12.7c3.7,0,6.4,1.5,8.1,4.6c0.8,1.4,1.2,2.9,1.2,4.5
		c0,2.7-0.9,4.9-2.8,6.6s-4.1,2.6-6.8,2.6H144.7z"/>
	<path class="st2" d="M202.5,40.8c-1.3,2.6-3.2,4.6-5.7,6c-2.4,1.4-5.2,2.2-8.1,2.2h-7.3V59h-4.7V18.7h11.8c4.4,0,8.1,1.5,11.1,4.4
		c3.1,2.9,4.6,6.5,4.6,10.9C204.3,36.3,203.7,38.6,202.5,40.8z M181.4,44.6h6.7c3.1,0,5.7-1,7.9-3c2.1-2,3.2-4.6,3.2-7.6
		c0-3-1-5.5-3.1-7.5c-2.1-2-4.7-2.9-7.8-2.9h-6.9V44.6z"/>
	<path class="st3" d="M230.3,49V23h-6.7c-3.1,0-5.7,1-7.9,3.1c-2.2,2.1-3.2,4.6-3.2,7.7s1.1,5.6,3.2,7.7c2.1,2,4.7,3.1,7.8,3.1
		c1.8,0,3.5-0.4,5.1-1.3v4.9c-2,0.7-3.8,1-5.3,1c-4.4,0-8.1-1.5-11.1-4.4c-3.1-2.9-4.6-6.6-4.6-10.9c0-2.4,0.6-4.8,1.7-7
		c1.4-2.6,3.3-4.6,5.7-6c2.4-1.4,5.2-2.1,8.1-2.1h12V49H230.3z"/>
	<path class="st0" d="M262.4,27.2c-2.7-3-5.8-4.4-9.1-4.4c-3,0-5.6,1.1-7.7,3.3c-2.2,2.2-3.2,4.8-3.2,7.8c0,3,1.1,5.6,3.2,7.7
		c2.2,2.1,4.7,3.2,7.7,3.2c2.3,0,4.4-0.6,6.2-1.8c1.9-1.2,3.2-2.9,3.9-5l3.3,3.1c-2.9,5.5-7.2,8.3-12.8,8.3c-4.6,0-8.5-1.4-11.6-4.3
		c-3.2-2.9-4.8-6.7-4.8-11.3c0-4.4,1.5-8.1,4.6-11.1c3.1-3,6.8-4.5,11.3-4.5c5.5,0,9.8,2.1,12.8,6.3L262.4,27.2z"/>
	<path class="st1" d="M294.7,31.5c-0.9-5.8-4.5-8.8-10.9-8.8c-3.2,0-5.9,1.1-8.2,3.2c-2.3,2.2-3.4,4.8-3.4,7.9c0,3,1.1,5.6,3.3,7.7
		c2.1,2.1,4.7,3.2,7.8,3.2c2.6,0,5-0.5,7.3-1.5c2.7-1.2,4.4-2.7,5.2-4.7l3.2,3.1c-1.3,2.5-3.4,4.4-6.3,5.7c-2.6,1.3-5.6,1.9-8.8,1.9
		c-4.5,0-8.4-1.5-11.6-4.5c-3.2-3-4.8-6.7-4.8-11c0-4.4,1.6-8,4.8-11.1c3.2-3,7.1-4.5,11.6-4.5c4.8,0,8.6,1.1,11.4,3.3
		c3.3,2.5,4.9,6.5,4.9,11.8c0,0.6,0,1.3,0,2h-23.2v-3.9L294.7,31.5L294.7,31.5z"/>
	<circle class="st4" cx="110.1" cy="32.9" r="23.1"/>
	<polygon class="st5" points="110.1,40.7 123.7,32.8 123.7,40.8 110.1,48.7 	"/>
	<polygon class="st5" points="96.4,25.1 110.1,17.1 110.1,24.9 96.4,32.8 	"/>
	<polygon class="st5" points="110.1,17.1 123.7,25 110.1,32.9 	"/>
	<polygon class="st5" points="110.1,32.9 96.4,40.8 110.1,48.7 	"/>
	<polygon class="st6" points="110.1,17.1 108.9,25.7 110.1,24.9 	"/>
	<polygon class="st6" points="110.1,48.7 111.3,39.9 110.1,40.7 	"/>
</g>
</svg>
